<svg xmlns="http://www.w3.org/2000/svg" version="1.1" width="300" viewBox="100 138 210 70"
    class="mx-auto">
    <g transform="matrix(0.53 0 0 0.56 231.05 168.71)">
        <circle style="fill: rgb(183,65,14);" cx="0" cy="0" r="35" />
    </g>
    <g transform="matrix(-0.4 -0.46 0.42 -0.37 201.33 165.66)">
        <circle style="fill: rgb(183,65,14);" cx="0" cy="0" r="35" />
    </g>
    <g transform="matrix(0.51 0.28 -0.31 0.57 173.17 158.06)">
        <circle style="fill: rgb(183,65,14);" cx="0" cy="0" r="35" />
    </g>
    <g transform="matrix(0.72 -0.14 0.12 0.64 247.65 156.6)">
        <circle style="fill: rgb(183,65,14);" cx="0" cy="0" r="35" />
    </g>
    <g transform="matrix(0.4 0 0 0.31 128.75 133.61)">
        <circle style="fill: rgb(183,65,14);" cx="0" cy="0" r="35" />
    </g>
    <g transform="matrix(0.65 -0.13 0.12 0.64 258.09 133.04)">
        <circle style="fill: rgb(183,65,14);" cx="0" cy="0" r="35" />
    </g>
    <g transform="matrix(0.65 -0.13 0.12 0.64 235.45 122.66)">
        <circle style="fill: rgb(183,65,14);" cx="0" cy="0" r="35" />
    </g>
    <g transform="matrix(0.7 -0.14 0.15 0.76 208 134.46)">
        <circle style="fill: rgb(183,65,14);" cx="0" cy="0" r="35" />
    </g>
    <g transform="matrix(0.65 -0.13 0.12 0.64 179.64 125.1)">
        <circle style="fill: rgb(183,65,14);" cx="0" cy="0" r="35" />
    </g>
    <g transform="matrix(0.65 -0.13 0.12 0.64 151.74 139.23)">
        <circle style="fill: rgb(183,65,14);" cx="0" cy="0" r="35" />
    </g>
</svg>